<svg viewBox="0 0 1152 1024" version="1.1" xmlns="http://www.w3.org/2000/svg"><path d="M1054.768 282.696v694.704H97.272V282.696" fill="#FFE5BD" p-id="22365"></path><path d="M1031.472 282.696v694.704a23.296 23.296 0 0 1 23.296-23.296H97.272a23.296 23.296 0 0 1 23.296 23.296V282.696H73.976v694.704a23.296 23.296 0 0 0 23.296 23.296h957.496a23.296 23.296 0 0 0 23.296-23.296V282.696h-46.592z" fill="#6E6E96" p-id="22366"></path><path d="M46.6 46.6H1105.44v235.056H46.6V46.6z" fill="#FFE5BD" p-id="22367"></path><path d="M312.16 807.464L599.296 523.04l0.504-31.504 20.048-44.632 104.28-47.528 32.792 33.104-411.968 408.08-32.792-33.096z" fill="#6E6E96" opacity=".15" p-id="22368"></path><path d="M121.688 281.656l838.76 83.56 94.312 612.184V281.656H121.688z m-75.088 0L909.2 192.8l196.24-146.2v235.056H46.6z" fill="#6E6E96" opacity=".15" p-id="22369"></path><path d="M46.6 46.6v104.264L1074.352 69.76 46.6 46.6z" fill="#FFFFFF" opacity=".72" p-id="22370"></path><path d="M46.6 69.896H1105.44a23.296 23.296 0 0 1-23.296-23.296v235.056a23.296 23.296 0 0 1 23.296-23.296H46.6a23.296 23.296 0 0 1 23.296 23.296V46.6a23.296 23.296 0 0 1-23.296 23.296z m0 235.056H1105.44a23.296 23.296 0 0 0 23.296-23.296V46.6a23.296 23.296 0 0 0-23.296-23.296H46.6a23.296 23.296 0 0 0-23.296 23.296v235.056a23.28 23.28 0 0 0 23.296 23.296zM721.248 897.296c-19.728 0-38.368-7.672-53.712-21.92l-132.64-131.544 39.464-39.464 6.576 6.576 15.344-15.344 24.112 24.112-24.112 24.112 100.848 100.848c12.056 12.056 32.888 12.056 46.04 0l27.408-27.408c13.152-13.152 13.152-32.888 0-46.04L669.728 670.384l-24.112 24.112-24.112-24.112 15.344-15.344-5.48-7.672 39.464-39.464 131.544 132.64c29.6 29.6 29.6 77.832 0 107.424l-27.408 27.408c-15.352 15.344-33.984 21.92-53.72 21.92zM471.32 630.92l-43.848-42.752-58.096-30.696-63.576-81.12L403.36 378.8l81.12 63.576 30.696 59.192 46.04 44.944-30.696 31.792-66.864-66.864 5.48-4.384-18.632-36.176-43.848-32.888-41.656 41.656 32.888 43.848 36.176 18.632 4.384-5.48 63.576 63.576-30.704 30.696z" fill="#6E6E96" p-id="22371"></path><path d="M394.592 897.296c-15.344 0-29.6-5.48-41.656-17.536l-27.408-27.408a58.896 58.896 0 0 1 0-83.312L557.92 536.656c-6.576-42.752 6.576-85.504 37.272-116.192 41.656-41.656 104.136-51.52 156.752-24.112l26.312 14.248-76.736 76.736 16.44 16.44 76.736-76.736 14.248 26.312c27.408 52.616 17.536 115.096-24.112 156.752-30.696 30.696-74.544 43.848-116.192 37.272l-232.4 233.48c-10.96 10.96-26.304 16.44-41.648 16.44z m295.968-471.36a89.608 89.608 0 0 0-63.576 26.312c-23.016 23.016-31.792 55.904-23.016 86.6l3.288 12.056-249.928 249.928c-5.48 5.48-5.48 15.344 0 20.824l27.408 27.408c5.48 5.48 15.344 5.48 20.824 0l249.928-249.928 12.056 3.288c30.696 8.768 64.672-1.096 86.6-23.016 19.728-19.728 29.6-48.232 26.312-74.544l-61.384 61.384-78.928-77.832 61.384-61.384c-3.296-1.096-7.68-1.096-10.968-1.096z" fill="#6E6E96" p-id="22372"></path></svg>